<svg xmlns="http://www.w3.org/2000/svg" xmlns:xlink="http://www.w3.org/1999/xlink" viewBox="0,0,256,256" width="500px" height="500px" fill-rule="nonzero"><g fill="none" fill-rule="nonzero" stroke="none" stroke-width="none" stroke-linecap="none" stroke-linejoin="none" stroke-miterlimit="10" stroke-dasharray="" stroke-dashoffset="0" font-family="none" font-weight="none" font-size="none" text-anchor="none" style="mix-blend-mode: normal"><g transform="scale(2.56,2.56)"><path d="M38.5,92.899c-1.736,0 -3.368,-0.676 -4.596,-1.904l-30,-30c-1.228,-1.226 -1.904,-2.859 -1.904,-4.596c0,-1.737 0.677,-3.37 1.905,-4.598l9.898,-9.898c1.228,-1.227 2.86,-1.903 4.596,-1.903c1.736,0 3.368,0.676 4.596,1.904l15.505,15.504l40.5,-40.5c1.228,-1.228 2.86,-1.904 4.596,-1.904c1.736,0 3.368,0.676 4.596,1.904l9.899,9.899c1.227,1.227 1.904,2.859 1.904,4.596c0,1.737 -0.677,3.37 -1.905,4.598l-54.994,54.995c-1.228,1.227 -2.86,1.903 -4.596,1.903z" fill="#000000" stroke="none" stroke-width="1" stroke-linecap="butt" stroke-linejoin="miter" opacity="0.35"></path><path d="M36.5,90.899c-1.736,0 -3.368,-0.676 -4.596,-1.904l-30,-30c-1.228,-1.226 -1.904,-2.859 -1.904,-4.596c0,-1.737 0.677,-3.37 1.905,-4.598l9.898,-9.898c1.228,-1.227 2.86,-1.903 4.596,-1.903c1.736,0 3.368,0.676 4.596,1.904l15.505,15.504l40.5,-40.5c1.228,-1.228 2.86,-1.904 4.596,-1.904c1.736,0 3.368,0.676 4.596,1.904l9.899,9.899c1.227,1.227 1.904,2.859 1.904,4.596c0,1.737 -0.677,3.37 -1.905,4.598l-54.994,54.995c-1.228,1.227 -2.86,1.903 -4.596,1.903z" fill="#f2f2f2" stroke="none" stroke-width="1" stroke-linecap="butt" stroke-linejoin="miter"></path><path d="M36.5,84.399l-30,-30l9.899,-9.899l20.101,20.101l45.097,-45.097l9.899,9.899z" fill="#77a445" stroke="none" stroke-width="1" stroke-linecap="butt" stroke-linejoin="miter"></path><g fill="none" stroke="#000000" stroke-width="3" stroke-linecap="round" stroke-linejoin="round"><path d="M36.5,84.399l-30,-30l9.899,-9.899l20.101,20.101l45.097,-45.097l9.899,9.899z"></path></g></g></g></svg>