<svg xmlns="http://www.w3.org/2000/svg" xmlns:xlink="http://www.w3.org/1999/xlink" viewBox="0,0,256,256" width="500px" height="500px" fill-rule="nonzero"><g fill="none" fill-rule="nonzero" stroke="none" stroke-width="none" stroke-linecap="none" stroke-linejoin="none" stroke-miterlimit="10" stroke-dasharray="" stroke-dashoffset="0" font-family="none" font-weight="none" font-size="none" text-anchor="none" style="mix-blend-mode: normal"><g transform="scale(2.56,2.56)"><path d="M27.601,93.022c-1.729,0 -3.358,-0.672 -4.584,-1.892l-9.923,-9.878c-2.536,-2.523 -2.549,-6.643 -0.03,-9.184l19.913,-20.068l-19.94,-20.095c-2.521,-2.542 -2.507,-6.662 0.029,-9.186l9.921,-9.876c1.101,-1.097 2.552,-1.748 4.194,-1.878l0.207,-0.016h0.208c1.737,0.006 3.367,0.688 4.59,1.92l19.814,19.97l19.743,-19.897c1.225,-1.233 2.855,-1.916 4.591,-1.922c1.752,0 3.381,0.672 4.607,1.892l9.923,9.878c2.536,2.523 2.549,6.643 0.03,9.184l-20.001,20.144l19.9,20.056c2.521,2.542 2.637,6.544 0.101,9.068l-9.921,9.876c-1.222,1.218 -2.851,1.892 -4.584,1.894c-1.761,-0.006 -3.391,-0.688 -4.614,-1.92l-19.775,-19.931l-19.785,19.94c-1.225,1.233 -2.855,1.916 -4.592,1.922h-0.009h-0.013z" fill="#000000" stroke="none" stroke-width="1" stroke-linecap="butt" stroke-linejoin="miter" opacity="0.35"></path><path d="M25.601,91.022c-1.729,0 -3.358,-0.672 -4.584,-1.892l-9.923,-9.878c-2.536,-2.523 -2.549,-6.643 -0.03,-9.184l19.913,-20.068l-19.94,-20.095c-2.521,-2.542 -2.507,-6.662 0.029,-9.186l9.921,-9.876c1.101,-1.097 2.552,-1.748 4.194,-1.878l0.207,-0.016h0.208c1.737,0.006 3.367,0.688 4.59,1.92l19.814,19.97l19.743,-19.897c1.225,-1.233 2.855,-1.916 4.591,-1.922c1.752,0 3.381,0.672 4.607,1.892l9.923,9.878c2.536,2.523 2.549,6.643 0.03,9.184l-19.871,20.026l19.9,20.056c2.521,2.542 2.507,6.662 -0.029,9.186l-9.921,9.876c-1.222,1.218 -2.851,1.892 -4.584,1.894c-1.761,-0.006 -3.391,-0.688 -4.614,-1.92l-19.775,-19.931l-19.785,19.94c-1.225,1.233 -2.855,1.916 -4.592,1.922h-0.009h-0.013z" fill="#f2f2f2" stroke="none" stroke-width="1" stroke-linecap="butt" stroke-linejoin="miter"></path><path d="M84.279,25.397l-9.922,-9.877l-24.357,24.547l-24.427,-24.617l-9.922,9.877l24.483,24.673l-24.455,24.645l9.922,9.877l24.399,-24.589l24.388,24.578l9.922,-9.877l-24.444,-24.634z" fill="#ec0816" stroke="none" stroke-width="1" stroke-linecap="butt" stroke-linejoin="miter"></path><path d="M84.279,25.397l-9.922,-9.877l-24.357,24.547l-24.427,-24.617l-9.922,9.877l24.483,24.673l-24.455,24.645l9.922,9.877l24.399,-24.589l24.388,24.578l9.922,-9.877l-24.444,-24.634z" fill="none" stroke="#000000" stroke-width="3" stroke-linecap="round" stroke-linejoin="round"></path></g></g></svg>