<svg xmlns="http://www.w3.org/2000/svg" xmlns:xlink="http://www.w3.org/1999/xlink" viewBox="0,0,256,256" width="500px" height="500px" fill-rule="nonzero"><g fill="none" fill-rule="nonzero" stroke="none" stroke-width="none" stroke-linecap="butt" stroke-linejoin="miter" stroke-miterlimit="10" stroke-dasharray="" stroke-dashoffset="0" font-family="none" font-weight="none" font-size="none" text-anchor="none" style="mix-blend-mode: normal"><g transform="scale(2.56,2.56)"><circle cx="52" cy="52" r="44" fill="#000000" stroke="none" stroke-width="1" opacity="0.35"></circle><circle cx="50" cy="50" r="44" fill="#f2f2f2" stroke="none" stroke-width="1"></circle><path d="M50,91c-22.607,0 -41,-18.393 -41,-41c0,-22.607 18.393,-41 41,-41c22.607,0 41,18.393 41,41c0,22.607 -18.393,41 -41,41z" fill="#f2f2f2" stroke="none" stroke-width="1"></path><circle cx="50.026" cy="50.026" r="38.026" fill="#3f9cee" stroke="none" stroke-width="1"></circle><circle cx="50" cy="50" r="37.5" fill="none" stroke="#000000" stroke-width="3"></circle><g fill="#f2f2f2" stroke="none" stroke-width="1"><path d="M42.017,65c-0.767,0 -1.534,-0.292 -2.119,-0.877l-10.017,-10c-1.173,-1.17 -1.175,-3.07 -0.004,-4.243c1.17,-1.173 3.07,-1.175 4.242,-0.003l7.896,7.882l23.881,-23.88c1.172,-1.172 3.07,-1.172 4.242,0c1.172,1.171 1.172,3.071 0,4.242l-26,26c-0.586,0.586 -1.354,0.879 -2.121,0.879z"></path></g></g></g></svg>