<svg xmlns="http://www.w3.org/2000/svg" xmlns:xlink="http://www.w3.org/1999/xlink" fill-rule="nonzero" viewBox="15.5 7.68 230.26 245.76"><g fill="none" fill-rule="nonzero" stroke="none" stroke-width="1" stroke-linecap="butt" stroke-linejoin="miter" stroke-miterlimit="10" stroke-dasharray="" stroke-dashoffset="0" font-family="none" font-weight="none" font-size="none" text-anchor="none" style="mix-blend-mode: normal"><g transform="scale(2.56,2.56)"><path d="M16.727,70c-3.079,0 -5.76,-1.96 -6.672,-4.877c-1.632,-5.223 -2.27,-10.663 -1.898,-16.17c1.5,-22.194 20.114,-40.171 42.376,-40.927c0.506,-0.017 1.011,-0.026 1.513,-0.026c5.552,0 10.922,1.014 16.016,3.02l2.083,-3.125c1.205,-1.812 3.227,-2.895 5.405,-2.895c0.334,0 0.669,0.026 0.996,0.077c2.448,0.366 4.514,2.156 5.234,4.556l6,20c0.578,1.922 0.246,3.969 -0.913,5.613c-1.162,1.646 -2.979,2.646 -4.988,2.747l-20.125,1.006l-0.2,0.001c-2.333,0 -4.499,-1.26 -5.651,-3.288c-1.221,-2.153 -1.126,-4.763 0.243,-6.817l0.321,-0.482c-1.45,-0.275 -2.927,-0.413 -4.423,-0.413c-0.286,0 -0.572,0.005 -0.86,0.016c-11.289,0.404 -20.862,8.696 -22.762,19.717c-0.75,4.35 -0.335,8.772 1.199,12.789c0.819,2.144 0.531,4.555 -0.772,6.447c-1.307,1.898 -3.463,3.031 -5.767,3.031z" fill="#000000" opacity="0.35"/><path d="M28.504,99.001c-0.33,0 -0.664,-0.026 -0.991,-0.077c-2.453,-0.367 -4.519,-2.157 -5.239,-4.557l-6,-20c-0.578,-1.922 -0.246,-3.969 0.913,-5.613c1.162,-1.646 2.979,-2.646 4.989,-2.746l20.124,-1.006l0.2,-0.002c2.333,0 4.499,1.26 5.651,3.288c1.221,2.153 1.126,4.763 -0.243,6.817l-0.321,0.482c1.45,0.275 2.927,0.413 4.423,0.413c0.283,0 0.567,-0.005 0.853,-0.015c11.296,-0.404 20.87,-8.697 22.769,-19.718c0.749,-4.35 0.334,-8.772 -1.2,-12.788c-0.819,-2.145 -0.531,-4.555 0.772,-6.447c1.307,-1.899 3.463,-3.032 5.768,-3.032h6.355c3.08,0 5.762,1.961 6.673,4.88c1.63,5.218 2.269,10.658 1.896,16.167c-1.5,22.194 -20.113,40.171 -42.375,40.927c-0.507,0.017 -1.012,0.026 -1.513,0.026c-5.553,0 -10.922,-1.014 -16.016,-3.02l-2.083,3.125c-1.205,1.812 -3.227,2.896 -5.405,2.896z" fill="#000000" opacity="0.35"/><path d="M92,36.88c-0.889,-2.849 -3.469,-4.772 -6.456,-4.863c0.583,-1.378 0.676,-2.917 0.234,-4.385l-6,-20c-0.72,-2.4 -2.786,-4.19 -5.234,-4.556c-0.325,-0.051 -0.66,-0.076 -0.994,-0.076c-2.178,0 -4.2,1.084 -5.404,2.895l-2.084,3.125c-5.094,-2.006 -10.464,-3.02 -16.016,-3.02c-0.501,0 -1.007,0.009 -1.513,0.026c-22.262,0.755 -40.876,18.732 -42.376,40.927c-0.372,5.507 0.266,10.947 1.897,16.17c0.891,2.847 3.469,4.769 6.455,4.86c-0.582,1.378 -0.676,2.917 -0.234,4.385l6,20c0.72,2.4 2.786,4.19 5.239,4.557c0.328,0.051 0.661,0.077 0.991,0.077c2.178,0 4.199,-1.084 5.404,-2.896l2.083,-3.125c5.094,2.005 10.463,3.019 16.016,3.019c0.501,0 1.006,-0.009 1.514,-0.026c22.262,-0.755 40.875,-18.732 42.375,-40.927c0.372,-5.509 -0.266,-10.948 -1.897,-16.167z" fill="#f2f2f2"/><path d="M14.711,61l-0.208,-0.724c-1.199,-4.166 -1.657,-8.49 -1.362,-12.852c1.261,-18.656 16.911,-33.768 35.629,-34.403c0.427,-0.014 0.853,-0.021 1.276,-0.021c5.938,0 11.627,1.379 16.908,4.1l0.794,0.409c0.144,0.074 0.297,0.112 0.457,0.112c0.335,0 0.647,-0.167 0.833,-0.446l4.342,-6.513l5.511,18.371l-18.371,0.918l4.057,-6.085c0.164,-0.247 0.211,-0.54 0.131,-0.825c-0.08,-0.285 -0.271,-0.511 -0.54,-0.636l-1.054,-0.493c-4.135,-1.932 -8.532,-2.912 -13.07,-2.912c-0.297,0 -0.594,0.004 -0.893,0.013c-15.856,0.456 -29.049,13.2 -30.036,29.014c-0.248,3.977 0.255,7.899 1.494,11.66l0.433,1.313z" fill="#bbbbbb"/><path d="M21.162,70.968l18.371,-0.919l-4.057,6.086c-0.164,0.247 -0.211,0.539 -0.131,0.824c0.08,0.285 0.271,0.511 0.54,0.636l1.054,0.493c4.136,1.932 8.533,2.912 13.071,2.912c0.297,0 0.594,-0.004 0.893,-0.013c15.856,-0.455 29.049,-13.2 30.036,-29.014c0.248,-3.978 -0.255,-7.901 -1.494,-11.661l-0.434,-1.312h6.332l0.208,0.724c1.199,4.165 1.657,8.489 1.362,12.852c-1.261,18.656 -16.911,33.768 -35.629,34.403c-0.427,0.014 -0.853,0.021 -1.276,0.021c-5.938,0 -11.626,-1.379 -16.908,-4.1l-0.794,-0.409c-0.144,-0.074 -0.297,-0.111 -0.457,-0.111c-0.336,0 -0.647,0.167 -0.833,0.446l-4.342,6.513z" fill="#bbbbbb"/><path d="M80.99,29.069l-6,-20c-0.167,-0.557 -0.641,-0.966 -1.215,-1.052c-0.075,-0.012 -0.15,-0.018 -0.225,-0.018c-0.496,0 -0.965,0.249 -1.244,0.669l-4.436,6.654c-5.345,-2.753 -11.398,-4.322 -17.824,-4.322c-0.446,0 -0.895,0.008 -1.344,0.023c-19.819,0.673 -36.22,16.482 -37.556,36.267c-0.339,5.021 0.279,9.853 1.681,14.34c0.257,0.823 1.038,1.37 1.9,1.37h6.355c1.394,0 2.367,-1.392 1.869,-2.694c-1.789,-4.684 -2.4,-9.945 -1.456,-15.422c2.306,-13.38 13.945,-23.38 27.513,-23.865c0.347,-0.013 0.692,-0.019 1.036,-0.019c4.368,0 8.506,0.986 12.224,2.724l-3.962,5.944c-0.314,0.472 -0.336,1.08 -0.057,1.573c0.268,0.47 0.767,0.759 1.305,0.759c0.024,0 0.05,0 0.075,-0.002l20,-1c0.46,-0.023 0.885,-0.256 1.15,-0.633c0.266,-0.377 0.344,-0.854 0.211,-1.296zM62.455,28.853l2.31,-3.465l0.645,-0.968c0.679,-1.019 0.292,-2.403 -0.817,-2.921l-1.054,-0.493c-4.27,-1.994 -8.81,-3.006 -13.495,-3.006c-0.306,0 -0.613,0.004 -0.921,0.013c-16.368,0.47 -29.987,13.626 -31.005,29.951c-0.259,4.16 0.285,8.22 1.542,12.035h-4.196c-1.148,-3.991 -1.616,-8.202 -1.325,-12.508c1.226,-18.151 16.453,-32.853 34.665,-33.471c0.415,-0.013 0.83,-0.02 1.242,-0.02c5.777,0 11.312,1.342 16.45,3.989l0.794,0.409c0.905,0.466 2.016,0.178 2.58,-0.669l0.496,-0.744l2.667,-4.001l4.534,15.112z" fill="#000000"/><path d="M85.327,37h-6.355c-1.394,0 -2.367,1.392 -1.869,2.694c1.789,4.684 2.4,9.944 1.456,15.422c-2.305,13.38 -13.945,23.38 -27.513,23.866c-0.347,0.012 -0.692,0.018 -1.036,0.018c-4.368,0 -8.506,-0.986 -12.224,-2.724l3.962,-5.944c0.314,-0.472 0.336,-1.08 0.057,-1.573c-0.268,-0.47 -0.767,-0.759 -1.305,-0.759c-0.024,0 -0.05,0 -0.075,0.002l-20,1c-0.46,0.023 -0.885,0.256 -1.15,0.633c-0.266,0.377 -0.344,0.854 -0.211,1.296l6,20c0.167,0.557 0.641,0.966 1.215,1.052c0.076,0.012 0.151,0.017 0.226,0.017c0.496,0 0.965,-0.249 1.244,-0.669l4.436,-6.654c5.344,2.754 11.397,4.323 17.823,4.323c0.446,0 0.895,-0.008 1.344,-0.023c19.819,-0.673 36.22,-16.482 37.556,-36.267c0.339,-5.021 -0.279,-9.853 -1.681,-14.34c-0.257,-0.823 -1.038,-1.37 -1.9,-1.37zM85.915,52.508c-1.226,18.151 -16.453,32.853 -34.665,33.471c-0.415,0.014 -0.83,0.021 -1.242,0.021c-5.777,0 -11.312,-1.342 -16.45,-3.989l-0.794,-0.409c-0.905,-0.466 -2.016,-0.178 -2.58,0.669l-0.496,0.744l-2.667,4.001l-4.534,-15.112l15.112,-0.756l-2.31,3.465l-0.645,0.968c-0.679,1.019 -0.292,2.403 0.817,2.921l1.054,0.493c4.269,1.994 8.81,3.005 13.495,3.005c0.306,0 0.613,-0.004 0.921,-0.013c16.368,-0.47 29.987,-13.626 31.005,-29.951c0.259,-4.16 -0.285,-8.22 -1.543,-12.035h4.196c1.149,3.99 1.617,8.202 1.326,12.507z" fill="#000000"/></g></g></svg>